<svg xmlns="http://www.w3.org/2000/svg" fill="none" viewBox="296 228.68 1643.5 373.32"><path fill="#fff" d="M667.221 395.232a4.775 4.775 0 0 1 4.773 4.772v33.199c0 1.109-.9 2.01-2.01 2.01-91.004 0-164.777 73.773-164.777 164.777 0 1.11-.901 2.009-2.01 2.01H468.09a4.774 4.774 0 0 1-4.774-4.773v-88.963l23.879-18.334a410.48 410.48 0 0 0 75.592-75.594l14.668-19.104h89.766ZM572.992 302.316a4.773 4.773 0 0 1 6.281.413l16.95 16.949a4.773 4.773 0 0 1 .41 6.281l-61.231 79.746a386.572 386.572 0 0 1-71.197 71.199l-79.748 61.231a4.773 4.773 0 0 1-6.281-.41l-16.949-16.95a4.772 4.772 0 0 1-.411-6.281l61.231-79.748a386.572 386.572 0 0 1 71.199-71.197l79.746-61.233ZM499.904 228.682a4.773 4.773 0 0 1 4.774 4.771v86.477l-25.996 19.959a410.438 410.438 0 0 0-75.592 75.592l-15.332 19.968h-86.985a4.774 4.774 0 0 1-4.773-4.773v-33.197c0-1.11.9-2.01 2.01-2.01 91.004 0 164.777-73.773 164.777-164.778a2.01 2.01 0 0 1 2.01-2.009h35.107ZM1605.97 469.471c-8.17 0-12.46 5.156-11.17 12.459 3.43 19.333 15.89 41.243 38.66 41.243h15.47c18.47 0 31.79-13.748 34.8-30.502h53.7c-4.73 45.109-43.39 76.47-89.36 76.47h-14.61c-55.85 0-96.23-46.827-96.23-112.128 0-69.597 46.83-111.27 94.94-111.27h15.47c52.84 0 90.65 46.398 90.65 104.826 0 9.451-.43 14.606-.86 18.902h-131.46Zm-5.59-53.701c-3.87 8.592-.43 14.607 9.45 14.607h60.15c9.45 0 13.75-5.585 10.31-14.177-4.3-15.896-17.19-27.496-32.22-27.496h-14.61c-13.32 0-26.2 9.881-33.08 27.066ZM1416.52 296.767l55.42-23.199v62.724c0 8.162 4.72 12.888 12.88 12.888h45.54v46.398h-45.54c-8.16 0-12.88 4.726-12.88 12.888v87.212c0 18.043 9.02 23.628 21.48 23.628h35.65v46.398h-51.98c-37.8 0-60.57-19.762-60.57-64.012v-93.226c0-8.162-4.73-12.888-12.89-12.888h-27.5V349.18h27.5c8.16 0 12.89-4.726 12.89-12.888v-39.525ZM1300.43 565.705V264.976h55.42v300.729h-55.42ZM1152.44 569.141c-44.25 0-69.76-25.347-69.76-63.582 0-41.243 33.51-62.294 75.18-68.738l44.68-6.444c7.74-1.289 11.6-3.867 11.6-9.881 0-16.755-12.46-30.503-28.78-30.503h-15.04c-16.75 0-29.21 10.741-30.5 29.214h-56.28c3.44-44.68 42.53-73.464 86.78-73.464h15.47c52.84 0 84.2 36.088 84.2 80.338v139.624h-47.36v-16.944c0-11.171-8.24-7.168-15.86.686-15.08 15.546-28.55 19.694-54.33 19.694Zm9.53-42.102c27.92 0 49.33-20.191 49.33-45.968v-.859c0-8.163-5.18-10.45-13.77-9.161l-24.2 4.435c-21.05 3.437-34.37 9.022-34.37 27.925 0 14.607 7.54 23.628 23.01 23.628ZM1821.95 569.141c-44.25 0-69.76-25.347-69.76-63.582 0-41.243 33.51-62.294 75.18-68.738l44.68-6.444c7.74-1.289 11.6-3.867 11.6-9.881 0-16.755-12.46-30.503-28.78-30.503h-15.04c-16.75 0-29.21 10.741-30.5 29.214h-56.28c3.44-44.68 42.53-73.464 86.78-73.464h15.47c52.84 0 84.2 36.088 84.2 80.338v139.624h-47.36v-16.944c0-11.171-8.24-7.168-15.86.686-15.07 15.546-28.55 19.694-54.33 19.694Zm9.53-42.102c27.92 0 49.33-20.191 49.33-45.968v-.859c0-8.163-5.18-10.45-13.77-9.161l-24.2 4.435c-21.05 3.437-34.37 9.022-34.37 27.925 0 14.607 7.54 23.628 23.01 23.628ZM913.011 569.142c-58.857 0-125.017-51.124-125.017-153.801 0-102.248 66.59-153.801 131.032-153.801h21.91c65.734 0 109.554 50.694 115.134 112.128h-57.996c-3.866-32.65-24.487-61.005-57.138-61.005h-21.91c-38.236 0-70.457 39.525-70.457 102.678 0 58.857 28.355 102.677 69.598 102.677h21.91c29.213 0 51.553-26.636 55.42-52.842 3.007-8.593-.86-13.748-9.022-13.748h-57.998v-45.109h127.163v159.386h-52.84v-17.614c0-8.163-6.444-10.74-13.747-4.296-11.6 12.458-30.503 25.347-54.561 25.347h-21.481Z"></path></svg>