<svg xmlns="http://www.w3.org/2000/svg" viewBox="0 0 540.828 89.99">
  <g clip-path="url(#a)" transform="matrix(1.33333 0 0 -1.33333 -290.845 441.846)">
    <path fill="#5c5bdd" d="m340.524 304.077-5.87 5.87a3.63 3.63 0 0 1-5.092.049l-21.21-20.54v42h-11.82v-42l-33.23 32.69c-4.056 3.988-10.627 3.962-14.649-.06l-30.513-30.501 5.87-5.87a3.63 3.63 0 0 1 5.107-.023l21.21 20.54v-42h11.82l.487 42L295.2 273.55c4.046-4.023 10.63-4.02 14.673.006z"/>
    <path fill="#000" d="M416.433 297.857c0-21.902-14.806-32.854-30.576-32.854-18.309 0-31.977 14.63-31.977 32.503 0 18.31 14.281 32.766 32.24 32.766 12.441 0 21.727-7.096 25.932-14.193l-8.41-4.03c-3.592 5.345-9.637 9.2-17.259 9.2-12.704 0-22.778-10.251-22.778-23.743 0-12.791 9.024-23.48 22.428-23.48 9.461 0 18.748 5.346 20.062 15.859h-20.939v7.972zm44.765-9.987v.35c-.087 7.972-6.571 14.105-14.367 14.105-7.885 0-14.281-6.22-14.281-14.369 0-8.059 6.484-14.367 14.368-14.367 7.798 0 14.28 6.132 14.28 14.28m9.287 22.253V265.88h-9.287v8.498c-2.978-5.519-8.147-9.374-15.77-9.374-11.74 0-22.252 9.287-22.252 22.953 0 13.492 10.338 23.041 22.253 23.041 7.535 0 12.79-3.854 15.769-9.46v8.585zm9.329 20.15h9.374v-64.393h-9.374zm18.749-4.819h9.286v-15.33h12.09v-7.098h-12.09v-24.443c0-3.24 1.49-4.73 4.731-4.73h7.36v-8.849h-7.36c-9.374 0-14.017 4.555-14.017 13.58zm62.289-34.518c0 7.622-6.22 12.09-13.23 12.09-6.57 0-12.527-3.942-13.666-12.09zm8.849-5.957h-35.832c1.05-7.972 6.658-12.178 14.017-12.178 4.994 0 9.462 2.016 12.44 6.308l6.922-4.205c-3.943-6.396-11.652-9.9-19.537-9.9-12.791 0-23.041 9.2-23.041 23.13 0 13.754 10.25 22.865 22.778 22.865 12.44 0 22.34-8.937 22.34-22.778zm44.768 2.892v.35c-.087 7.972-6.571 14.105-14.367 14.105-7.885 0-14.281-6.22-14.281-14.369 0-8.059 6.484-14.367 14.368-14.367 7.798 0 14.28 6.132 14.28 14.28m9.287 22.253V265.88h-9.287v8.498c-2.978-5.519-8.147-9.374-15.77-9.374-11.74 0-22.252 9.287-22.252 22.953 0 13.492 10.338 23.041 22.253 23.041 7.534 0 12.79-3.854 15.769-9.46v8.585z"/>
  </g>
</svg>